**ABCDEFGHIJKLMNOPQRSTUVWXYZabcdefghijklmnopqrstuvwxyz**************************
**PARASOLID !"#$%&'()*+,-./:;<=>?@[\]^_`{|}~0123456789**************************
**PART1;
MC=AMD64;
MC_MODEL=Intel64 Family 6 Model 154 Stepping 3, GenuineIntel;
MC_ID=unknown;
OS=Windows_NT;
OS_RELEASE=unknown;
FRU=Parasolid Version 32.1, build 255,  1- 1-2021;
APPL=SOLIDWORKS 2021-2021085;
SITE=;
USER=unknown;
FORMAT=text;
GUISE=transmit;
KEY=makeProjectedPlanarWire;
FILE=makeProjectedPlanarWire.x_t;
DATE=Fri Nov  4 16:32:04 2022;
**PART2;
SCH=SCH_3201255_32001;
USFLD_SIZE=0;
**PART3;
**END_OF_HEADER*****************************************************************
T51 : TRANSMIT FILE created by modeller version 320125523 SCH_3201255_32001_1300
6229 0 12 34 CCCCCCI4 mesh1006 0 I8 polyline1008 0 CCCCCCCDI5 owner1040 0 CCCCCC
I13 boundary_mesh1006 0 I17 boundary_polyline1008 0 CCCA16 index_map_offset0 0 1
 dA9 index_map82 0 A17 node_id_index_map82 0 A20 schema_embedding_map82 0 A5 chi
ld12 0 A14 lowest_node_id0 0 1 dA16 mesh_offset_data206 0 Z1 81 2 3 0 0 0 0 0 0
 1e3 1e-8 0 4 0 1 0 3 1 5 6 7 8 0 0 9 10 11 0 0 0 0 0 0 0 81 255 2 2 71 12 1 0 0
 0 0 13 0 70 11 CI9 list_type0 0 1 uI10 notransmit0 0 1 lCCCDCCDI12 finger_index
0 0 1 dI12 finger_block1012 0 CZ3 0 4 T1 0 0 2 20 1 14 14 13 255 5 78 0 1 0 15 0
 0 9 15 50 255 6 3 0 15 0 0 0 +0 .01 0 0 1 0 0 0 1 31 255 7 46 0 10 16 0 0 +.044
 .01 -.019 0 1 0 0 0 1 .00325 29 255 8 70 0 11 17 0 -.05 .01 -.019 19 8 CCCCCCCA
5 owner12 0 Z9 77 0 1 0 0 5 V0 16 255 10 44 0 ?18 0 19 7 0 0 1 18 255 11 68 0 20
 0 21 8 ?1 17 255 20 0 0 0 0 11 22 23 0 24 -18 21 65 0 25 11 26 17 ?1 17 25 0 27
 24 28 21 29 30 0 31 +18 26 62 0 28 21 32 33 ?1 29 17 67 0 21 33 8 -.044 .01 -.0
25 29 33 64 0 26 34 17 .044 .01 -.025 29 34 61 0 32 35 33 .05 .01 -.019 18 32 59
 0 36 26 37 34 ?1 29 35 58 0 37 38 34 .05 .01 .019 18 37 56 0 39 32 40 35 ?1 29
 38 55 0 40 41 35 .044 .01 .025 18 40 53 0 42 37 43 38 ?1 29 41 52 0 43 44 38 -.
044 .01 .025 18 43 50 0 45 40 46 41 ?1 29 44 49 0 46 0 41 -.05 .01 .019 18 46 47
 0 22 43 0 44 ?1 17 22 0 27 45 24 46 20 23 0 47 +15 255 27 8 0 22 15 48 17 45 0
 27 42 22 43 47 49 0 50 +17 24 0 27 22 25 11 31 51 0 0 +16 23 17 0 ?22 49 52 53
 0 0 1 17 47 0 0 0 0 46 45 49 0 0 -16 49 20 0 ?45 54 23 55 0 0 1 16 54 23 0 ?42
 56 49 57 0 0 1 31 55 22 0 49 53 57 0 +-.044 .01 .019 0 1 0 0 0 1 .006 30 255 53
 19 0 23 58 55 0 +-.05 .01 .025 0 0 1 30 57 25 0 54 55 59 0 +.05 .01 .025 1 0 -1
387778780781446e-31 31 59 28 0 56 57 60 0 +.044 .01 .019 0 1 0 0 0 1 .006 16 56
 26 0 ?39 61 54 59 0 0 1 30 60 31 0 61 59 62 0 +.05 .01 .025 0 0 -1 16 61 29 0 ?
36 63 56 60 0 0 1 31 62 34 0 63 60 64 0 +.044 .01 -.019 0 1 0 0 0 1 .006 16 63 3
2 0 ?28 30 61 62 0 0 1 30 64 37 0 30 62 65 0 +.05 .01 -.025 -1 0 208166817117217
e-30 16 30 35 0 ?25 51 63 64 0 0 1 31 65 40 0 51 64 16 0 +-.044 .01 -.019 0 1 0
 0 0 1 .006 16 51 38 0 ?24 19 30 65 0 0 1 31 16 43 0 19 65 7 0 +-.044 .01 -.019
 0 1 0 0 0 -1 .00325 16 19 41 0 ?66 10 51 16 0 0 1 17 66 0 0 0 0 0 67 19 0 0 +17
 67 0 48 67 67 0 66 19 0 0 -15 48 9 0 67 15 68 14 255 15 1 69 ?0 0 70 5 6 +0 0 0
 0 5 15 68 10 0 71 15 0 17 71 0 68 71 71 0 18 10 0 0 -17 18 0 0 0 0 0 71 10 0 0
 +81 1 69 81 72 15 0 0 0 0 73 15 70 6 0 74 15 75 17 74 0 70 74 74 0 76 77 0 0 -1
5 75 7 0 78 15 27 17 78 0 75 78 78 0 79 52 0 0 -17 79 0 0 0 0 0 78 52 0 0 +16 52
 14 0 ?79 23 77 58 0 0 1 16 77 11 0 ?76 52 0 80 0 0 1 31 58 16 0 52 80 53 0 +-.0
44 .01 .019 0 1 0 0 0 1 .00325 31 80 13 0 77 0 58 0 +.044 .01 .019 0 1 0 0 0 -1
 .00325 17 76 0 0 0 0 0 74 77 0 0 +80 255 1 72 81 82 9000 1 1 1 1 1 1 1 1 0 FFFF
TFTFFFFFFF1 82 255 1 73 2133196966 79 255 14 82 SWEntUnchanged17 28 0 27 25 36 2
6 83 63 0 29 +17 36 0 27 28 39 32 84 61 0 83 +17 83 0 0 0 0 32 28 63 0 0 -17 29
 0 0 0 0 26 25 30 0 0 -17 39 0 27 36 42 37 85 56 0 84 +17 84 0 0 0 0 37 36 61 0
 0 -17 42 0 27 39 45 40 50 54 0 85 +17 85 0 0 0 0 40 39 56 0 0 -17 50 0 0 0 0 43
 42 54 0 0 -17 31 0 0 0 0 21 24 51 0 0 -74 4 CI16 index_map_offset0 0 1 dCCZ20 1
4 2 0 0 2 69 0 0 0 0 0 0 0 0 0 0 0 0 0 0 0 0 0 0 80 2 12 86 87 8004 0 0 0 0 3 5
 0 0 0 FFTFFFFFFFFFFF2 3 83 255 1 13 1 79 16 87 SDL/TYSA_DENSITY1 0 
